<svg xmlns="http://www.w3.org/2000/svg" width="20" height="20" viewBox="0 0 20 20" fill="none">
  <path fill-rule="evenodd" clip-rule="evenodd" d="M2.21967 4.46967C2.51256 4.17678 2.98744 4.17678 3.28033 4.46967L8.28033 9.46967C8.57322 9.76256 8.57322 10.2374 8.28033 10.5303L3.28033 15.5303C2.98744 15.8232 2.51256 15.8232 2.21967 15.5303C1.92678 15.2374 1.92678 14.7626 2.21967 14.4697L6.68934 10L2.21967 5.53033C1.92678 5.23744 1.92678 4.76256 2.21967 4.46967Z" fill="#F4F6FC"/>
  <path fill-rule="evenodd" clip-rule="evenodd" d="M8.25 14.8333C8.25 14.3731 8.6231 14 9.08333 14H16.5833C17.0436 14 17.4167 14.3731 17.4167 14.8333C17.4167 15.2936 17.0436 15.6667 16.5833 15.6667H9.08333C8.6231 15.6667 8.25 15.2936 8.25 14.8333Z" fill="#F4F6FC"/>
</svg>