<svg xmlns="http://www.w3.org/2000/svg" width="44" height="40" viewBox="0 0 44 40" fill="none">
  <path d="M36.206 19.1462C35.8958 11.9153 37.2492 7.73808 44 0L30.5045 13.6382C33.7345 17.819 33.4464 23.8744 29.6402 27.7209C25.834 31.5673 19.8419 31.8584 15.7048 28.5942L13.2053 31.1202L13.2146 31.128L9.24358 35.1701C12.2419 33.4151 16.8719 33.9187 19.6649 34.2224C20.4385 34.3066 21.0711 34.3754 21.4892 34.3766C25.3152 34.5668 29.2035 33.1854 32.1256 30.2325C35.1327 27.1936 36.4928 23.1206 36.206 19.1462Z" fill="#F4F6FC"/>
  <path d="M22.5108 5.62339C22.9289 5.62464 23.5615 5.69345 24.3351 5.77758C27.1281 6.08135 31.7581 6.5849 34.7564 4.82993L30.7854 8.87199L30.7947 8.87979L28.2952 11.4058C24.1581 8.14159 18.166 8.43272 14.3598 12.2791C10.5536 16.1256 10.2655 22.181 13.4955 26.3618L0 40C6.7508 32.2619 8.10418 28.0847 7.79403 20.8538C7.50719 16.8794 8.86732 12.8064 11.8744 9.76753C14.7965 6.81459 18.6848 5.43321 22.5108 5.62339Z" fill="#F4F6FC"/>
  <path fill-rule="evenodd" clip-rule="evenodd" d="M31.1125 20C31.1125 25.0858 27.0327 29.2088 22 29.2088C16.9673 29.2088 12.8875 25.0858 12.8875 20C12.8875 14.9141 16.9673 10.7912 22 10.7912C27.0327 10.7912 31.1125 14.9141 31.1125 20ZM22 27C25.866 27 29 23.866 29 20C29 16.134 25.866 13 22 13C18.134 13 15 16.134 15 20C15 23.866 18.134 27 22 27Z" fill="#F4F6FC"/>
</svg>