<svg xmlns="http://www.w3.org/2000/svg" width="73" height="73" viewBox="0 0 73 73" fill="none">
  <path
    d="M24.0821 32.7837C23.3195 31.8314 22.6026 30.8953 21.935 29.9816L20.7239 30.8666C21.4052 31.7991 22.1356 32.7527 22.9112 33.7213L24.0821 32.7837Z"
    fill="white" />
  <path fill-rule="evenodd" clip-rule="evenodd"
    d="M71.2595 2.67015C71.5524 2.37726 71.5524 1.90239 71.2595 1.60949C70.9666 1.3166 70.4917 1.3166 70.1988 1.60949L65.0683 6.74001C62.6701 4.41308 60.2538 2.54159 58.2217 1.37159C57.135 0.74591 56.1201 0.298543 55.2534 0.106056C54.4281 -0.0772286 53.5006 -0.0770087 52.8747 0.548835C52.8012 0.622413 52.7362 0.700162 52.6792 0.781425C52.6227 0.813788 52.5695 0.854109 52.5212 0.902388L43.6823 9.74122C43.0565 10.3671 43.0563 11.2946 43.2396 12.1199C43.4321 12.9866 43.8794 14.0015 44.5051 15.0882C45.0528 16.0395 45.7543 17.075 46.5842 18.1534C42.3028 14.2925 38.1324 11.1629 34.5504 9.053C32.1858 7.6601 30.04 6.68913 28.2652 6.26121C26.5398 5.84517 24.91 5.8861 23.8834 6.9128C23.8046 6.99155 23.7317 7.07384 23.6643 7.15946C23.6165 7.18921 23.5713 7.22484 23.5298 7.26635L6.55924 24.2369C6.42782 24.3683 6.35537 24.5364 6.34189 24.7082C5.89237 25.6879 5.94378 26.9487 6.26121 28.2652C6.68913 30.04 7.6601 32.1858 9.053 34.5504C11.1629 38.1324 14.2925 42.3028 18.1534 46.5842C17.075 45.7543 16.0395 45.0528 15.0882 44.5051C14.0015 43.8794 12.9866 43.4321 12.1199 43.2396C11.2946 43.0563 10.3671 43.0565 9.74122 43.6823C9.66764 43.7559 9.60272 43.8337 9.54571 43.9149C9.48917 43.9473 9.43595 43.9876 9.38767 44.0359L0.548835 52.8747C-0.0770102 53.5006 -0.0772273 54.4281 0.106055 55.2534C0.298543 56.1201 0.745909 57.135 1.37158 58.2217C2.54159 60.2538 4.41308 62.6702 6.74001 65.0683L1.60949 70.1988C1.3166 70.4917 1.3166 70.9666 1.60949 71.2595C1.90239 71.5524 2.37726 71.5524 2.67015 71.2595L7.80067 66.129C10.1989 68.4559 12.6152 70.3274 14.6473 71.4974C15.734 72.1231 16.7489 72.5705 17.6156 72.763C18.4409 72.9462 19.3684 72.946 19.9943 72.3202L28.8331 63.4813C28.8814 63.4331 28.9217 63.3798 28.9541 63.3233C29.0353 63.2663 29.1131 63.2014 29.1867 63.1278C29.8125 62.5019 29.8127 61.5744 29.6294 60.7491C29.4369 59.8824 28.9896 58.8675 28.3639 57.7808C27.8162 56.8295 27.1147 55.794 26.2848 54.7156C30.5662 58.5765 34.7366 61.7061 38.3186 63.816C40.6833 65.2089 42.829 66.1799 44.6038 66.6078C45.9203 66.9252 47.1811 66.9766 48.1608 66.5271C48.3326 66.5136 48.5007 66.4412 48.6321 66.3098L65.6027 49.3392C65.6442 49.2977 65.6798 49.2525 65.7095 49.2047C65.7952 49.1373 65.8774 49.0644 65.9562 48.9856C66.9829 47.959 67.0238 46.3292 66.6078 44.6038C66.1799 42.829 65.2089 40.6833 63.816 38.3186C61.7061 34.7366 58.5765 30.5662 54.7156 26.2848C55.794 27.1147 56.8295 27.8162 57.7808 28.3639C58.8675 28.9896 59.8824 29.4369 60.7491 29.6294C61.5744 29.8127 62.5019 29.8125 63.1278 29.1867L71.9666 20.3478C72.0149 20.2995 72.0552 20.2463 72.0876 20.1898C72.1688 20.1328 72.2466 20.0678 72.3202 19.9943C72.946 19.3684 72.9462 18.4409 72.763 17.6156C72.5705 16.7489 72.1231 15.734 71.4974 14.6473C70.3274 12.6152 68.4559 10.1989 66.129 7.80067L71.2595 2.67015ZM57.4732 2.67152C59.3678 3.76233 61.68 5.54454 64.0075 7.80079L62.4207 9.38767C62.1278 9.68056 62.1278 10.1554 62.4207 10.4483C62.7136 10.7412 63.1884 10.7412 63.4813 10.4483L65.0682 8.86145C67.3245 11.189 69.1067 13.5012 70.1975 15.3958C70.7874 16.4204 71.153 17.285 71.2986 17.9408C71.4535 18.6381 71.3171 18.876 71.2595 18.9336C71.2019 18.9912 70.964 19.1276 70.2667 18.9727C69.6109 18.8271 68.7463 18.4615 67.7217 17.8716C65.6821 16.6973 63.1586 14.7217 60.6529 12.2161C58.1473 9.71044 56.1717 7.18688 54.9974 5.14733C54.4075 4.12267 54.0419 3.25808 53.8963 2.60227C53.7414 1.90502 53.8778 1.66707 53.9354 1.60949C53.993 1.55192 54.2309 1.41552 54.9282 1.57038C55.584 1.71603 56.4486 2.08156 57.4732 2.67152ZM44.743 10.8019L52.4674 3.07746C52.6761 3.91037 53.1076 4.87116 53.6975 5.89577C54.9545 8.07894 57.0211 10.7056 59.5922 13.2768C62.1634 15.8479 64.7901 17.9145 66.9732 19.1715C67.9978 19.7615 68.9586 20.1929 69.7915 20.4016L62.0671 28.126C62.0095 28.1836 61.7716 28.32 61.0743 28.1651C60.4185 28.0195 59.5539 27.6539 58.5293 27.064C56.4897 25.8897 53.9662 23.9141 51.4605 21.4085C48.9549 18.9028 46.9793 16.3793 45.805 14.3397C45.2151 13.3151 44.8495 12.4505 44.7039 11.7947C44.549 11.0974 44.6854 10.8595 44.743 10.8019ZM33.7891 10.3454C38.246 12.9707 43.7055 17.2641 49.1607 22.6477L47.3907 24.4177C44.9925 22.0908 42.5761 20.2193 40.544 19.0493C39.4573 18.4236 38.4424 17.9762 37.5757 17.7837C36.7505 17.6004 35.8229 17.6007 35.1971 18.2265C34.5712 18.8523 34.571 19.7799 34.7543 20.6052C34.9468 21.4718 35.3941 22.4867 36.0198 23.5734C37.2768 25.7566 39.3434 28.3833 41.9146 30.9544C44.4857 33.5256 47.1124 35.5922 49.2956 36.8492C50.3823 37.4749 51.3972 37.9222 52.2638 38.1147C53.0891 38.298 54.0167 38.2978 54.6425 37.6719C55.2683 37.0461 55.2686 36.1185 55.0853 35.2933C54.8928 34.4266 54.4454 33.4117 53.8197 32.325C52.6497 30.2929 50.7782 27.8765 48.4513 25.4783L50.2213 23.7083C55.6049 29.1635 59.8983 34.623 62.5236 39.0799C63.8818 41.3858 64.7711 43.3858 65.1496 44.9554C65.5399 46.5742 65.3333 47.4872 64.8955 47.925C64.4578 48.3628 63.5448 48.5694 61.9259 48.179C60.3564 47.8006 58.3563 46.9113 56.0504 45.553C51.4487 42.8424 45.778 38.3534 40.1468 32.7222C34.5156 27.091 30.0266 21.4203 27.316 16.8186C25.9577 14.5127 25.0684 12.5126 24.69 10.9431C24.2996 9.32422 24.5062 8.41123 24.944 7.97346C25.3818 7.53568 26.2948 7.32908 27.9136 7.71942C29.4832 8.09786 31.4832 8.98717 33.7891 10.3454ZM16.4587 16.4587L23.004 9.91349C23.0387 10.3599 23.1182 10.8237 23.2318 11.2947C23.6597 13.0694 24.6307 15.2152 26.0236 17.5799C28.8153 22.3193 33.3922 28.0889 39.0862 33.7829C44.7802 39.4769 50.5497 44.0538 55.2891 46.8454C57.6538 48.2383 59.7996 49.2093 61.5743 49.6372C62.0453 49.7508 62.5091 49.8303 62.9555 49.865L56.4103 56.4103C55.9725 56.848 55.0595 57.0546 53.4406 56.6643C51.8711 56.2859 49.8711 55.3965 47.5652 54.0383C42.9634 51.3276 37.2927 46.8387 31.6615 41.2075C31.3686 40.9146 30.8938 40.9146 30.6009 41.2075C30.308 41.5004 30.308 41.9752 30.6009 42.2681C36.2949 47.9621 42.0645 52.539 46.8038 55.3307C49.1685 56.7236 51.3143 57.6946 53.089 58.1225C53.56 58.2361 54.0238 58.3156 54.4702 58.3503L47.925 64.8955C47.4872 65.3333 46.5742 65.5399 44.9554 65.1496C43.3858 64.7711 41.3858 63.8818 39.0799 62.5236C34.4781 59.8129 28.8075 55.324 23.1762 49.6928C17.545 44.0616 13.0561 38.3909 10.3454 33.7891C8.98718 31.4832 8.09786 29.4832 7.71942 27.9136C7.32908 26.2948 7.53568 25.3818 7.97346 24.944L14.5187 18.3987C14.5589 18.9138 14.6587 19.4531 14.8022 20.0013C15.2929 21.8763 16.3659 24.1499 17.8906 26.6531L19.1716 25.8729C17.6819 23.427 16.6914 21.2955 16.2533 19.6215C15.8001 17.8899 16.0016 16.9159 16.4587 16.4587ZM1.60949 53.9354L9.33392 46.211C9.54263 47.0439 9.97404 48.0047 10.564 49.0293C11.8209 51.2125 13.8876 53.8391 16.4587 56.4103C19.0299 58.9814 21.6565 61.0481 23.8397 62.305C24.8643 62.895 25.8251 63.3264 26.658 63.5351L18.9336 71.2595C18.876 71.3171 18.6381 71.4535 17.9408 71.2986C17.285 71.153 16.4204 70.7874 15.3958 70.1975C13.3562 69.0232 10.8327 67.0476 8.32701 64.542C5.82136 62.0363 3.84581 59.5128 2.67152 57.4732C2.08156 56.4486 1.71603 55.584 1.57038 54.9282C1.41552 54.2309 1.55192 53.993 1.60949 53.9354ZM10.8019 44.743C10.8595 44.6854 11.0974 44.549 11.7947 44.7039C12.4505 44.8495 13.3151 45.2151 14.3397 45.805C16.3793 46.9793 18.9028 48.9549 21.4085 51.4605C23.9141 53.9662 25.8897 56.4897 27.064 58.5293C27.6539 59.5539 28.0195 60.4185 28.1651 61.0743C28.32 61.7716 28.1836 62.0095 28.126 62.0671C28.0684 62.1247 27.8305 62.2611 27.1332 62.1062C26.4774 61.9606 25.6128 61.5951 24.5882 61.0051C22.5486 59.8308 20.025 57.8553 17.5194 55.3496C15.0137 52.844 13.0382 50.3204 11.8639 48.2808C11.2739 47.2562 10.9084 46.3916 10.7628 45.7358C10.6079 45.0385 10.7443 44.8006 10.8019 44.743Z"
    fill="white" />
</svg>