<svg width="348" height="53" viewBox="0 0 348 53" fill="none" xmlns="http://www.w3.org/2000/svg">
<path d="M16.1554 43.0726C10.9711 43.0726 7.04633 41.9059 4.38114 39.5726C1.71595 37.2392 0.255566 33.9839 0 29.8065H8.48845C8.70751 31.8763 9.36468 33.4946 10.46 34.6613C11.5918 35.828 13.4902 36.4113 16.1554 36.4113C18.0904 36.4113 19.6421 35.922 20.8104 34.9435C22.0152 33.9274 22.6176 32.629 22.6176 31.0484C22.6176 29.4301 22.1065 28.2634 21.0842 27.5484C20.062 26.8333 18.1087 26.25 15.2244 25.7984C10.1131 25.121 6.48043 23.879 4.32637 22.0726C2.17231 20.2285 1.09528 17.3871 1.09528 13.5484C1.09528 10.0484 2.39137 7.16936 4.98354 4.91129C7.61222 2.65323 11.0624 1.52419 15.334 1.52419C19.7516 1.52419 23.2018 2.54032 25.6844 4.57258C28.2036 6.60484 29.6457 9.61559 30.0108 13.6048H21.8509C21.3033 10.0296 19.131 8.24194 15.334 8.24194C13.4355 8.24194 11.9751 8.65591 10.9528 9.48387C9.96709 10.3118 9.47421 11.422 9.47421 12.8145C9.47421 14.3199 9.94883 15.4489 10.8981 16.2016C11.8838 16.9167 13.8371 17.5 16.7578 17.9516C21.7962 18.629 25.4471 19.8522 27.7107 21.621C29.9743 23.3521 31.1061 26.2124 31.1061 30.2016C31.1061 33.8898 29.737 36.957 26.9988 39.4032C24.2971 41.8495 20.6826 43.0726 16.1554 43.0726Z" fill="#060606"/>
<path d="M36.7823 52.5V12.9274H44.7231V17.5565C45.5628 16.0511 46.7859 14.7903 48.3923 13.7742C50.0352 12.7581 51.8607 12.25 53.8687 12.25C57.5197 12.25 60.5134 13.586 62.8501 16.2581C65.1867 18.9301 66.355 22.6371 66.355 27.379V27.8306C66.355 32.5726 65.1867 36.2984 62.8501 39.0081C60.5134 41.7177 57.5197 43.0726 53.8687 43.0726C51.7512 43.0726 49.8892 42.6021 48.2828 41.6613C46.6764 40.6828 45.4898 39.4409 44.7231 37.9355V52.5H36.7823ZM51.5139 36.6935C53.7044 36.6935 55.3839 35.9409 56.5522 34.4355C57.7205 32.9301 58.3046 30.7473 58.3046 27.8871V27.4355C58.3046 24.5376 57.684 22.336 56.4426 20.8306C55.2013 19.2876 53.5401 18.5161 51.4591 18.5161C49.305 18.5161 47.5891 19.2876 46.3113 20.8306C45.0699 22.336 44.4493 24.5376 44.4493 27.4355V27.8871C44.4493 30.7849 45.0699 32.9866 46.3113 34.4919C47.5526 35.9597 49.2868 36.6935 51.5139 36.6935Z" fill="#060606"/>
<path d="M79.3734 43.0726C76.5622 43.0726 74.2621 42.3387 72.4732 40.871C70.6842 39.4032 69.7897 37.2016 69.7897 34.2661C69.7897 27.9435 74.755 24.7823 84.6856 24.7823H87.9167V23.5968C87.9167 21.7527 87.5698 20.3978 86.8761 19.5323C86.1825 18.629 84.9777 18.1774 83.2617 18.1774C80.3775 18.1774 78.7528 19.5699 78.3877 22.3548H70.885C71.104 19.0054 72.3819 16.4839 74.7185 14.7903C77.0551 13.0968 80.0671 12.25 83.7546 12.25C91.7502 12.25 95.7479 15.9005 95.7479 23.2016V42.4516H88.0262V38.8952C86.0912 41.6801 83.2069 43.0726 79.3734 43.0726ZM81.7283 37.371C83.5173 37.371 84.9959 36.9005 86.1642 35.9597C87.3325 35.0188 87.9167 33.7392 87.9167 32.121V29.6371H84.8499C82.4402 29.6371 80.6148 29.957 79.3734 30.5968C78.1686 31.2366 77.5662 32.3091 77.5662 33.8145C77.5662 36.1855 78.9536 37.371 81.7283 37.371Z" fill="#060606"/>
<path d="M115.543 43.0726C111.235 43.0726 107.693 41.7554 104.918 39.121C102.18 36.4489 100.811 32.7607 100.811 28.0564V27.6048C100.811 22.9758 102.217 19.2688 105.028 16.4839C107.876 13.6613 111.399 12.25 115.597 12.25C119.248 12.25 122.315 13.172 124.798 15.0161C127.317 16.8602 128.741 19.7581 129.069 23.7097H121.567C121.019 20.3602 119.084 18.6855 115.762 18.6855C113.681 18.6855 112.019 19.457 110.778 21C109.537 22.543 108.916 24.707 108.916 27.4919V27.9435C108.916 30.879 109.519 33.1183 110.723 34.6613C111.965 36.1667 113.699 36.9194 115.926 36.9194C117.569 36.9194 118.956 36.4301 120.088 35.4516C121.22 34.4731 121.877 33.0618 122.06 31.2177H129.234C129.015 34.793 127.7 37.672 125.291 39.8548C122.881 42 119.632 43.0726 115.543 43.0726Z" fill="#060606"/>
<path d="M147.422 43.0726C143.005 43.0726 139.408 41.7366 136.634 39.0645C133.859 36.3548 132.472 32.6855 132.472 28.0564V27.6048C132.472 23.0134 133.859 19.3065 136.634 16.4839C139.445 13.6613 142.968 12.25 147.203 12.25C151.219 12.25 154.542 13.5108 157.17 16.0323C159.835 18.5538 161.168 22.2984 161.168 27.2661V29.5242H140.522C140.631 31.9704 141.307 33.871 142.548 35.2258C143.79 36.5806 145.487 37.2581 147.641 37.2581C151.073 37.2581 153.063 35.8844 153.611 33.1371H161.113C160.639 36.336 159.215 38.8011 156.842 40.5323C154.469 42.2258 151.329 43.0726 147.422 43.0726ZM140.631 24.5H153.446C153.191 20.0968 151.11 17.8952 147.203 17.8952C145.414 17.8952 143.936 18.4785 142.767 19.6452C141.635 20.7742 140.924 22.3925 140.631 24.5Z" fill="#060606"/>
<path d="M176.826 43.0161C173.796 43.0161 171.496 42.2258 169.926 40.6452C168.356 39.0645 167.571 36.75 167.571 33.7016V18.7419H163.902V12.9274H167.571V6.54839H175.457V12.9274H181.481V18.7419H175.457V32.9677C175.457 35.3011 176.516 36.4677 178.633 36.4677C179.765 36.4677 180.769 36.2796 181.645 35.9032V42.2258C180.185 42.7527 178.578 43.0161 176.826 43.0161Z" fill="#060606"/>
<path d="M187.229 42.4516V12.9274H195.115V42.4516H187.229ZM194.348 7.67742C193.472 8.50537 192.395 8.91935 191.117 8.91935C189.839 8.91935 188.762 8.50537 187.886 7.67742C187.046 6.81183 186.626 5.73925 186.626 4.45968C186.626 3.18011 187.046 2.12634 187.886 1.29839C188.762 0.432796 189.839 0 191.117 0C192.395 0 193.472 0.432796 194.348 1.29839C195.224 2.12634 195.662 3.18011 195.662 4.45968C195.662 5.73925 195.224 6.81183 194.348 7.67742Z" fill="#060606"/>
<path d="M202.412 42.4516V12.9274H210.353V17.4435C211.119 15.9382 212.269 14.6962 213.803 13.7177C215.336 12.7392 217.107 12.25 219.115 12.25C223.095 12.25 225.76 13.9624 227.111 17.3871C229.338 13.9624 232.55 12.25 236.749 12.25C239.56 12.25 241.824 13.1909 243.54 15.0726C245.292 16.9543 246.169 19.7769 246.169 23.5403V42.4516H238.282V24.4435C238.282 20.793 236.786 18.9677 233.792 18.9677C232.185 18.9677 230.853 19.4946 229.794 20.5484C228.772 21.6021 228.261 23.0887 228.261 25.0081V42.4516H220.375V24.4435C220.375 20.793 218.878 18.9677 215.884 18.9677C214.277 18.9677 212.945 19.4946 211.886 20.5484C210.864 21.6021 210.353 23.0887 210.353 25.0081V42.4516H202.412Z" fill="#060606"/>
<path d="M266.149 43.0726C261.732 43.0726 258.135 41.7366 255.361 39.0645C252.586 36.3548 251.199 32.6855 251.199 28.0564V27.6048C251.199 23.0134 252.586 19.3065 255.361 16.4839C258.172 13.6613 261.695 12.25 265.93 12.25C269.946 12.25 273.269 13.5108 275.897 16.0323C278.563 18.5538 279.895 22.2984 279.895 27.2661V29.5242H259.249C259.359 31.9704 260.034 33.871 261.275 35.2258C262.517 36.5806 264.214 37.2581 266.368 37.2581C269.8 37.2581 271.79 35.8844 272.338 33.1371H279.84C279.366 36.336 277.942 38.8011 275.569 40.5323C273.196 42.2258 270.056 43.0726 266.149 43.0726ZM259.359 24.5H272.173C271.918 20.0968 269.837 17.8952 265.93 17.8952C264.141 17.8952 262.663 18.4785 261.494 19.6452C260.363 20.7742 259.651 22.3925 259.359 24.5Z" fill="#060606"/>
<path d="M288.707 40.7016H296.539C302.234 40.7016 306.561 39.0269 309.518 35.6774C312.512 32.2903 314.009 27.8495 314.009 22.3548V21.9032C314.009 16.4839 312.53 12.1183 309.573 8.80645C306.615 5.45699 302.252 3.78226 296.484 3.78226H288.707V40.7016ZM286.736 42.4516V2.08871H296.758C302.891 2.08871 307.638 3.9328 310.997 7.62097C314.355 11.3091 316.035 16.0699 316.035 21.9032V22.3548C316.035 28.2634 314.374 33.0995 311.051 36.8629C307.765 40.5887 302.964 42.4516 296.648 42.4516H286.736Z" fill="#060606"/>
<path d="M323.959 42.4516V2.08871H334.638C338.106 2.08871 340.862 2.93548 342.907 4.62903C344.988 6.32258 346.028 8.84409 346.028 12.1935V12.4194C346.028 14.828 345.39 16.7849 344.112 18.2903C342.87 19.7581 341.118 20.7554 338.854 21.2823C344.951 22.2608 348 25.5726 348 31.2177V31.4435C348 34.9812 346.959 37.7097 344.878 39.629C342.797 41.5108 339.931 42.4516 336.28 42.4516H323.959ZM325.875 40.7581H336.226C339.439 40.7581 341.885 39.9677 343.564 38.3871C345.244 36.7688 346.083 34.4543 346.083 31.4435V31.2177C346.083 28.2823 345.134 26.0618 343.235 24.5565C341.337 23.0134 338.581 22.2419 334.966 22.2419H325.875V40.7581ZM325.875 20.6048H334.747C337.777 20.6048 340.077 19.8898 341.647 18.4597C343.254 17.0296 344.057 14.9973 344.057 12.3629V12.1371C344.057 9.35215 343.235 7.26344 341.593 5.87097C339.95 4.47849 337.613 3.78226 334.583 3.78226H325.875V20.6048Z" fill="#060606"/>
</svg>
