<svg width="154" height="32" viewBox="0 0 154 32" fill="none" xmlns="http://www.w3.org/2000/svg">
<path d="M28.8897 15.317C28.6423 9.53226 29.7222 6.19046 35.1088 0L24.3403 10.9106C26.9177 14.2552 26.6878 19.0995 23.6507 22.1767C20.6137 25.2538 15.8324 25.4867 12.5313 22.8754L10.5369 24.8962L10.5443 24.9024L7.3757 28.1361C9.76812 26.7321 13.4625 27.1349 15.6911 27.3779C16.3084 27.4452 16.8132 27.5003 17.1468 27.5013C20.1997 27.6534 23.3023 26.5483 25.6339 24.186C28.0333 21.7549 29.1186 18.4965 28.8897 15.317Z" fill="#D7D8D9"/>
<path d="M17.962 4.49871C18.2956 4.49971 18.8004 4.55476 19.4177 4.62207C21.6463 4.86508 25.3407 5.26792 27.7331 3.86395L24.5646 7.0976L24.572 7.10383L22.5775 9.12462C19.2764 6.51328 14.4951 6.74618 11.4581 9.82332C8.421 12.9005 8.19113 17.7448 10.7685 21.0894L0 32C5.38665 25.8095 6.46655 22.4677 6.21907 16.683C5.99019 13.5035 7.07548 10.2451 9.47494 7.81402C11.8065 5.45167 14.9091 4.34657 17.962 4.49871Z" fill="#D7D8D9"/>
<path fill-rule="evenodd" clip-rule="evenodd" d="M24.8255 16C24.8255 20.0687 21.5701 23.367 17.5544 23.367C13.5387 23.367 10.2833 20.0687 10.2833 16C10.2833 11.9313 13.5387 8.63292 17.5544 8.63292C21.5701 8.63292 24.8255 11.9313 24.8255 16ZM17.5544 21.6C20.6392 21.6 23.1399 19.0928 23.1399 16C23.1399 12.9072 20.6392 10.4 17.5544 10.4C14.4696 10.4 11.9689 12.9072 11.9689 16C11.9689 19.0928 14.4696 21.6 17.5544 21.6Z" fill="#D7D8D9"/>
<path d="M102.76 11.7368V21.1845H105.274V11.7368H102.76Z" fill="#D7D8D9"/>
<path d="M103.999 10.4542C104.407 10.4542 104.75 10.3217 105.029 10.0568C105.308 9.77978 105.448 9.43656 105.448 9.0271C105.448 8.61763 105.308 8.28043 105.029 8.01548C104.75 7.73849 104.407 7.6 103.999 7.6C103.592 7.6 103.249 7.73849 102.97 8.01548C102.702 8.28043 102.568 8.61763 102.568 9.0271C102.568 9.43656 102.702 9.77978 102.97 10.0568C103.249 10.3217 103.592 10.4542 103.999 10.4542Z" fill="#D7D8D9"/>
<path d="M48.237 21.3832C46.5847 21.3832 45.3338 21.0099 44.4844 20.2632C43.635 19.5166 43.1695 18.4748 43.0881 17.1381H45.7935C45.8633 17.8004 46.0727 18.3183 46.4218 18.6916C46.7825 19.0649 47.3876 19.2516 48.237 19.2516C48.8537 19.2516 49.3483 19.0951 49.7206 18.7819C50.1046 18.4568 50.2966 18.0413 50.2966 17.5355C50.2966 17.0176 50.1337 16.6443 49.8079 16.4155C49.4821 16.1867 48.8595 16 47.9403 15.8555C46.3113 15.6387 45.1535 15.2413 44.4669 14.6632C43.7804 14.0731 43.4372 13.1639 43.4372 11.9355C43.4372 10.8155 43.8502 9.89419 44.6764 9.17161C45.5142 8.44903 46.6138 8.08774 47.9752 8.08774C49.3832 8.08774 50.4828 8.4129 51.274 9.06323C52.0769 9.71355 52.5365 10.677 52.6529 11.9535H50.0522C49.8777 10.8095 49.1854 10.2374 47.9752 10.2374C47.3701 10.2374 46.9047 10.3699 46.5789 10.6348C46.2647 10.8998 46.1076 11.2551 46.1076 11.7006C46.1076 12.1824 46.2589 12.5437 46.5614 12.7845C46.8756 13.0133 47.4981 13.2 48.429 13.3445C50.0348 13.5613 51.1984 13.9527 51.9198 14.5187C52.6413 15.0727 53.002 15.988 53.002 17.2645C53.002 18.4447 52.5656 19.4262 51.6929 20.209C50.8319 20.9918 49.6799 21.3832 48.237 21.3832Z" fill="#D7D8D9"/>
<path fill-rule="evenodd" clip-rule="evenodd" d="M54.8111 24.4V11.7368H57.3419V13.2181C57.6095 12.7363 57.9993 12.3329 58.5113 12.0077C59.0349 11.6826 59.6167 11.52 60.2567 11.52C61.4203 11.52 62.3745 11.9475 63.1192 12.8026C63.8639 13.6576 64.2362 14.8439 64.2362 16.3613V16.5058C64.2362 18.0232 63.8639 19.2155 63.1192 20.0826C62.3745 20.9497 61.4203 21.3832 60.2567 21.3832C59.5818 21.3832 58.9884 21.2327 58.4764 20.9316C57.9644 20.6185 57.5862 20.2211 57.3419 19.7394V24.4H54.8111ZM59.5062 19.3419C60.2044 19.3419 60.7396 19.1011 61.112 18.6194C61.4843 18.1376 61.6705 17.4391 61.6705 16.5239V16.3794C61.6705 15.452 61.4727 14.7475 61.077 14.2658C60.6814 13.772 60.152 13.5252 59.4887 13.5252C58.8022 13.5252 58.2553 13.772 57.8481 14.2658C57.4524 14.7475 57.2546 15.452 57.2546 16.3794V16.5239C57.2546 17.4512 57.4524 18.1557 57.8481 18.6374C58.2437 19.1071 58.7964 19.3419 59.5062 19.3419Z" fill="#D7D8D9"/>
<path fill-rule="evenodd" clip-rule="evenodd" d="M66.1862 20.6787C66.7563 21.1484 67.4894 21.3832 68.3854 21.3832C69.6072 21.3832 70.5264 20.9376 71.1431 20.0465V21.1845H73.6041V15.0245C73.6041 12.6882 72.33 11.52 69.7817 11.52C68.6065 11.52 67.6465 11.791 66.9018 12.3329C66.1571 12.8748 65.7498 13.6817 65.68 14.7535H68.0712C68.1876 13.8624 68.7054 13.4168 69.6246 13.4168C70.1715 13.4168 70.5555 13.5613 70.7766 13.8503C70.9977 14.1273 71.1082 14.5609 71.1082 15.151V15.5303H70.0784C66.9134 15.5303 65.3309 16.5419 65.3309 18.5652C65.3309 19.5045 65.616 20.209 66.1862 20.6787ZM70.5497 19.1071C70.1773 19.4082 69.7061 19.5587 69.1359 19.5587C68.2516 19.5587 67.8094 19.1794 67.8094 18.4206C67.8094 17.9389 68.0014 17.5957 68.3854 17.391C68.781 17.1862 69.3628 17.0839 70.1308 17.0839H71.1082V17.8787C71.1082 18.3966 70.922 18.806 70.5497 19.1071Z" fill="#D7D8D9"/>
<path d="M79.9129 21.3832C78.5399 21.3832 77.4112 20.9617 76.5269 20.1187C75.6542 19.2637 75.2178 18.0834 75.2178 16.5781V16.4335C75.2178 14.9523 75.6658 13.766 76.5618 12.8748C77.4694 11.9716 78.5923 11.52 79.9304 11.52C81.094 11.52 82.0714 11.8151 82.8627 12.4052C83.6656 12.9953 84.1194 13.9226 84.2241 15.1871H81.8329C81.6584 14.1153 81.0416 13.5794 79.9828 13.5794C79.3195 13.5794 78.7901 13.8262 78.3945 14.32C77.9988 14.8138 77.801 15.5062 77.801 16.3974V16.5419C77.801 17.4813 77.993 18.1978 78.377 18.6916C78.7726 19.1733 79.3253 19.4142 80.0351 19.4142C80.5587 19.4142 81.0009 19.2576 81.3616 18.9445C81.7224 18.6314 81.9318 18.1798 81.99 17.5897H84.2765C84.2066 18.7338 83.7878 19.6551 83.0198 20.3535C82.2518 21.04 81.2162 21.3832 79.9129 21.3832Z" fill="#D7D8D9"/>
<path fill-rule="evenodd" clip-rule="evenodd" d="M86.6349 20.1006C87.5193 20.9557 88.6654 21.3832 90.0734 21.3832C91.3184 21.3832 92.3191 21.1123 93.0755 20.5703C93.8318 20.0163 94.2856 19.2275 94.4369 18.2039H92.0457C91.8711 19.083 91.237 19.5226 90.1432 19.5226C89.4567 19.5226 88.9156 19.3058 88.52 18.8723C88.1243 18.4387 87.9091 17.8305 87.8742 17.0477H94.4543V16.3252C94.4543 14.7355 94.0296 13.5372 93.1802 12.7303C92.3424 11.9234 91.2835 11.52 90.0036 11.52C88.6538 11.52 87.5309 11.9716 86.6349 12.8748C85.7506 13.7781 85.3084 14.9643 85.3084 16.4335V16.5781C85.3084 18.0594 85.7506 19.2335 86.6349 20.1006ZM91.9933 15.44H87.9091C88.0022 14.7656 88.2291 14.2477 88.5898 13.8865C88.9621 13.5131 89.4334 13.3265 90.0036 13.3265C91.2486 13.3265 91.9119 14.031 91.9933 15.44Z" fill="#D7D8D9"/>
<path d="M99.4447 21.3652C98.4789 21.3652 97.7458 21.1123 97.2455 20.6065C96.7451 20.1006 96.495 19.36 96.495 18.3845V13.5974H95.3255V11.7368H96.495V9.69548H99.0083V11.7368H100.928V13.5974H99.0083V18.1497C99.0083 18.8963 99.3458 19.2697 100.021 19.2697C100.381 19.2697 100.701 19.2095 100.981 19.089V21.1123C100.515 21.2809 100.003 21.3652 99.4447 21.3652Z" fill="#D7D8D9"/>
<path d="M107.599 21.1845V11.7368H110.13V13.1819C110.374 12.7002 110.741 12.3028 111.23 11.9897C111.718 11.6766 112.283 11.52 112.923 11.52C114.191 11.52 115.04 12.068 115.471 13.1639C116.181 12.068 117.205 11.52 118.543 11.52C119.439 11.52 120.16 11.8211 120.707 12.4232C121.266 13.0254 121.545 13.9286 121.545 15.1329V21.1845H119.032V15.4219C119.032 14.2538 118.555 13.6697 117.6 13.6697C117.088 13.6697 116.664 13.8383 116.326 14.1755C116 14.5127 115.838 14.9884 115.838 15.6026V21.1845H113.324V15.4219C113.324 14.2538 112.847 13.6697 111.893 13.6697C111.381 13.6697 110.956 13.8383 110.619 14.1755C110.293 14.5127 110.13 14.9884 110.13 15.6026V21.1845H107.599Z" fill="#D7D8D9"/>
<path fill-rule="evenodd" clip-rule="evenodd" d="M124.475 20.1006C125.359 20.9557 126.505 21.3832 127.913 21.3832C129.158 21.3832 130.159 21.1123 130.915 20.5703C131.672 20.0163 132.125 19.2275 132.277 18.2039H129.885C129.711 19.083 129.077 19.5226 127.983 19.5226C127.296 19.5226 126.755 19.3058 126.36 18.8723C125.964 18.4387 125.749 17.8305 125.714 17.0477H132.294V16.3252C132.294 14.7355 131.869 13.5372 131.02 12.7303C130.182 11.9234 129.123 11.52 127.843 11.52C126.494 11.52 125.371 11.9716 124.475 12.8748C123.59 13.7781 123.148 14.9643 123.148 16.4335V16.5781C123.148 18.0594 123.59 19.2335 124.475 20.1006ZM129.833 15.44H125.749C125.842 14.7656 126.069 14.2477 126.43 13.8865C126.802 13.5131 127.273 13.3265 127.843 13.3265C129.088 13.3265 129.752 14.031 129.833 15.44Z" fill="#D7D8D9"/>
<path fill-rule="evenodd" clip-rule="evenodd" d="M134.474 21.1845V8.26839H137.668C139.623 8.26839 141.136 8.85849 142.207 10.0387C143.277 11.2189 143.812 12.7424 143.812 14.609V14.7535C143.812 16.6443 143.283 18.1918 142.224 19.3961C141.177 20.5884 139.647 21.1845 137.634 21.1845H134.474ZM135.103 20.6245H137.599C139.414 20.6245 140.793 20.0886 141.735 19.0168C142.689 17.9329 143.166 16.5118 143.166 14.7535V14.609C143.166 12.8748 142.695 11.4778 141.753 10.4181C140.81 9.34624 139.42 8.81032 137.581 8.81032H135.103V20.6245Z" fill="#D7D8D9"/>
<path fill-rule="evenodd" clip-rule="evenodd" d="M146.338 8.26839V21.1845H150.265C151.428 21.1845 152.342 20.8834 153.005 20.2813C153.668 19.6671 154 18.794 154 17.6619V17.5897C154 15.7832 153.028 14.7234 151.085 14.4103C151.807 14.2417 152.365 13.9226 152.761 13.4529C153.168 12.9712 153.372 12.3449 153.372 11.5742V11.5019C153.372 10.4301 153.04 9.62323 152.377 9.08129C151.725 8.53936 150.847 8.26839 149.741 8.26839H146.338ZM150.247 20.6426H146.949V14.7174H149.846C150.998 14.7174 151.876 14.9643 152.481 15.4581C153.087 15.9398 153.389 16.6503 153.389 17.5897V17.6619C153.389 18.6254 153.121 19.366 152.586 19.8839C152.051 20.3897 151.271 20.6426 150.247 20.6426ZM149.776 14.1935H146.949V8.81032H149.724C150.69 8.81032 151.434 9.03312 151.958 9.47871C152.481 9.9243 152.743 10.5927 152.743 11.4839V11.5561C152.743 12.3991 152.487 13.0495 151.975 13.5071C151.475 13.9647 150.742 14.1935 149.776 14.1935Z" fill="#D7D8D9"/>
</svg>
