<svg width="32" height="32" viewBox="0 0 32 32" fill="none" xmlns="http://www.w3.org/2000/svg">
<g clip-path="url(#clip0_799_3294)">
<path d="M13.3279 14.0683C12.9946 14.0972 12.6842 14.25 12.458 14.4966C12.2319 14.7432 12.1064 15.0657 12.1064 15.4003C12.1064 15.7349 12.2319 16.0573 12.458 16.3039C12.6842 16.5505 12.9946 16.7034 13.3279 16.7323C13.4958 16.7253 13.6607 16.6853 13.8131 16.6146C13.9655 16.5439 14.1025 16.4438 14.2161 16.3201C14.3298 16.1964 14.418 16.0514 14.4756 15.8936C14.5332 15.7358 14.5592 15.5681 14.5519 15.4003C14.5601 15.2322 14.5348 15.0641 14.4776 14.9059C14.4203 14.7477 14.3322 14.6024 14.2183 14.4785C14.1044 14.3545 13.9671 14.2545 13.8143 14.1841C13.6614 14.1136 13.4961 14.0743 13.3279 14.0683ZM17.7079 14.0683C17.4396 14.0455 17.1707 14.1043 16.9364 14.2369C16.702 14.3695 16.5132 14.5698 16.3946 14.8116C16.276 15.0533 16.2332 15.3252 16.2717 15.5917C16.3102 15.8582 16.4283 16.1069 16.6105 16.3051C16.7926 16.5034 17.0305 16.642 17.2927 16.7029C17.555 16.7637 17.8296 16.744 18.0805 16.6462C18.3314 16.5484 18.5469 16.3771 18.6988 16.1548C18.8507 15.9325 18.932 15.6695 18.9319 15.4003C18.9392 15.2324 18.9132 15.0647 18.8556 14.9069C18.798 14.7491 18.7098 14.6042 18.5961 14.4804C18.4825 14.3567 18.3455 14.2566 18.1931 14.1859C18.0407 14.1152 17.8758 14.0752 17.7079 14.0683Z" fill="#6F7987"/>
<path d="M23.54 4H7.46001C7.13617 4.00079 6.81565 4.06535 6.51677 4.19001C6.21788 4.31466 5.94647 4.49697 5.71804 4.72652C5.4896 4.95606 5.30862 5.22835 5.18542 5.52784C5.06222 5.82734 4.99922 6.14816 5.00001 6.472V22.7C4.99922 23.0238 5.06222 23.3447 5.18542 23.6442C5.30862 23.9436 5.4896 24.2159 5.71804 24.4455C5.94647 24.675 6.21788 24.8573 6.51677 24.982C6.81565 25.1066 7.13617 25.1712 7.46001 25.172H21.068L20.432 22.952L21.968 24.38L23.42 25.72L26 28V6.472C26.0008 6.14816 25.9378 5.82734 25.8146 5.52784C25.6914 5.22835 25.5104 4.95606 25.282 4.72652C25.0535 4.49697 24.7821 4.31466 24.4832 4.19001C24.1844 4.06535 23.8638 4.00079 23.54 4V4ZM18.908 19.672C18.908 19.672 18.476 19.156 18.116 18.7C18.9858 18.4952 19.7552 17.9893 20.288 17.272C19.8562 17.5594 19.3933 17.7969 18.908 17.98C18.3498 18.2183 17.7659 18.3914 17.168 18.496C16.1403 18.6852 15.0863 18.6812 14.06 18.484C13.4589 18.3659 12.8698 18.1932 12.3 17.968C11.8188 17.7842 11.3599 17.5467 10.932 17.26C11.4455 17.9624 12.1883 18.4632 13.032 18.676C12.672 19.132 12.232 19.676 12.232 19.676C11.5192 19.6952 10.8126 19.5388 10.1744 19.2208C9.53616 18.9027 8.9859 18.4327 8.57201 17.852C8.61037 15.4179 9.20124 13.0243 10.3 10.852C11.2664 10.093 12.4447 9.65272 13.672 9.592L13.792 9.736C12.6345 10.0208 11.5542 10.5576 10.628 11.308C10.628 11.308 10.892 11.164 11.336 10.96C12.1984 10.5649 13.1177 10.3084 14.06 10.2C14.1259 10.1863 14.1928 10.1783 14.26 10.176C15.0641 10.0712 15.8779 10.0632 16.684 10.152C17.9533 10.2975 19.1817 10.6902 20.3 11.308C19.4231 10.5942 18.4047 10.0747 17.312 9.784L17.48 9.592C18.7074 9.65272 19.8856 10.093 20.852 10.852C21.9508 13.0243 22.5416 15.4179 22.58 17.852C22.1624 18.4314 21.6096 18.9001 20.9697 19.2173C20.3297 19.5344 19.622 19.6905 18.908 19.672Z" fill="#6F7987"/>
</g>
<defs>
<clipPath id="clip0_799_3294">
<rect width="24" height="24" fill="white" transform="translate(4 4)"/>
</clipPath>
</defs>
</svg>
