<svg width="32" height="32" viewBox="0 0 32 32" fill="none" xmlns="http://www.w3.org/2000/svg">
<g clip-path="url(#clip0_799_3327)">
<path fill-rule="evenodd" clip-rule="evenodd" d="M16 4.2998C9.4 4.2998 4 9.6998 4 16.2998C4 21.5998 7.4 26.0998 12.2 27.6998C12.8 27.7998 13 27.3998 13 27.0998C13 26.7998 13 26.0998 13 25.0998C9.7 25.7998 9 23.4998 9 23.4998C8.5 22.0998 7.7 21.6998 7.7 21.6998C6.5 20.9998 7.7 20.9998 7.7 20.9998C8.9 21.0998 9.5 22.1998 9.5 22.1998C10.6 23.9998 12.3 23.4998 13 23.1998C13.1 22.3998 13.4 21.8998 13.8 21.5998C11.1 21.2998 8.3 20.2998 8.3 15.6998C8.3 14.3998 8.8 13.2998 9.5 12.4998C9.5 12.0998 9 10.8998 9.7 9.2998C9.7 9.2998 10.7 8.9998 13 10.4998C14 10.1998 15 10.0998 16 10.0998C17 10.0998 18 10.1998 19 10.4998C21.3 8.8998 22.3 9.2998 22.3 9.2998C23 10.9998 22.5 12.1998 22.4 12.4998C23.2 13.2998 23.6 14.3998 23.6 15.6998C23.6 20.2998 20.8 21.2998 18.1 21.5998C18.5 21.9998 18.9 22.6998 18.9 23.7998C18.9 25.3998 18.9 26.6998 18.9 27.0998C18.9 27.3998 19.1 27.7998 19.7 27.6998C24.5 26.0998 27.9 21.5998 27.9 16.2998C28 9.6998 22.6 4.2998 16 4.2998Z" fill="#6F7987"/>
</g>
<defs>
<clipPath id="clip0_799_3327">
<rect width="24" height="24" fill="white" transform="translate(4 4)"/>
</clipPath>
</defs>
</svg>
