<svg width="32" height="32" viewBox="0 0 32 32" fill="none" xmlns="http://www.w3.org/2000/svg">
<g clip-path="url(#clip0_1643_5230)">
<path d="M25.12 28H5.85626V19.435H7.99001V25.8662H22.957V19.435H25.12V28Z" fill="#6F7987"/>
<path d="M10.3578 18.85L20.8525 21.0422L21.2913 18.9377L10.7965 16.7455L10.3578 18.85ZM11.7318 13.822L21.4368 18.352L22.3428 16.423L12.6378 11.863L11.7318 13.822ZM14.4213 9.05725L22.6638 15.8972L24.0378 14.26L15.7953 7.42L14.4213 9.05725ZM19.7425 4L18.0175 5.28625L24.4195 13.8812L26.1445 12.595L19.7425 4ZM10.1245 23.7025H20.8225V21.5687H10.1245V23.7025Z" fill="#6F7987"/>
</g>
<defs>
<clipPath id="clip0_1643_5230">
<rect width="24" height="24" fill="white" transform="translate(4 4)"/>
</clipPath>
</defs>
</svg>
