<svg width="32" height="32" viewBox="0 0 32 32" fill="none" xmlns="http://www.w3.org/2000/svg">
<path d="M28 8.5998C27.1 8.9998 26.2 9.2998 25.2 9.3998C26.2 8.7998 27 7.7998 27.4 6.6998C26.4 7.2998 25.4 7.6998 24.3 7.8998C23.4 6.8998 22.1 6.2998 20.7 6.2998C18 6.2998 15.8 8.4998 15.8 11.1998C15.8 11.5998 15.8 11.9998 15.9 12.2998C11.7 12.0998 8.1 10.0998 5.7 7.0998C5.2 7.8998 5 8.6998 5 9.5998C5 11.2998 5.9 12.7998 7.2 13.6998C6.4 13.6998 5.6 13.4998 5 13.0998C5 13.0998 5 13.0998 5 13.1998C5 15.5998 6.7 17.5998 8.9 17.9998C8.5 18.0998 8.1 18.1998 7.6 18.1998C7.3 18.1998 7 18.1998 6.7 18.0998C7.3 20.0998 9.1 21.4998 11.3 21.4998C9.6 22.7998 7.5 23.5998 5.2 23.5998C4.8 23.5998 4.4 23.5998 4 23.4998C6.2 24.8998 8.8 25.6998 11.5 25.6998C20.6 25.6998 25.5 18.1998 25.5 11.6998C25.5 11.4998 25.5 11.2998 25.5 11.0998C26.5 10.3998 27.3 9.4998 28 8.5998Z" fill="#6F7987"/>
</svg>
