<svg width="32" height="32" viewBox="0 0 32 32" fill="none" xmlns="http://www.w3.org/2000/svg">
<path d="M27.8 11.1996C27.8 11.1996 27.6 9.49961 26.8 8.79961C25.9 7.79961 24.9 7.79961 24.4 7.79961C21 7.59961 16 7.59961 16 7.59961C16 7.59961 11 7.59961 7.6 7.79961C7.1 7.89961 6.1 7.89961 5.2 8.79961C4.5 9.49961 4.2 11.1996 4.2 11.1996C4.2 11.1996 4 13.0996 4 15.0996V16.8996C4 18.7996 4.2 20.7996 4.2 20.7996C4.2 20.7996 4.4 22.4996 5.2 23.1996C6.1 24.1996 7.3 24.0996 7.8 24.1996C9.7 24.3996 16 24.3996 16 24.3996C16 24.3996 21 24.3996 24.4 24.0996C24.9 23.9996 25.9 23.9996 26.8 23.0996C27.5 22.3996 27.8 20.6996 27.8 20.6996C27.8 20.6996 28 18.7996 28 16.7996V14.9996C28 13.0996 27.8 11.1996 27.8 11.1996ZM13.5 19.0996V12.3996L20 15.7996L13.5 19.0996Z" fill="#6F7987"/>
</svg>
