<!DOCTYPE svg PUBLIC "-//W3C//DTD SVG 1.1//EN" "http://www.w3.org/Graphics/SVG/1.1/DTD/svg11.dtd">
<!-- Uploaded to: SVG Repo, www.svgrepo.com, Transformed by: SVG Repo Mixer Tools -->
<svg width="800px" height="800px" viewBox="0 0 24 24" fill="none" xmlns="http://www.w3.org/2000/svg">
<g id="SVGRepo_bgCarrier" stroke-width="0"/>
<g id="SVGRepo_tracerCarrier" stroke-linecap="round" stroke-linejoin="round"/>
<g id="SVGRepo_iconCarrier"> <path d="M20 18C20 20.2091 16.4183 22 12 22C7.58172 22 4 20.2091 4 18V13.974C4.50221 14.5906 5.21495 15.1029 6.00774 15.4992C7.58004 16.2854 9.69967 16.75 12 16.75C14.3003 16.75 16.42 16.2854 17.9923 15.4992C18.7851 15.1029 19.4978 14.5906 20 13.974V18Z" fill="#f4a434"/> <path d="M12 10.75C14.3003 10.75 16.42 10.2854 17.9923 9.49925C18.7851 9.10285 19.4978 8.59059 20 7.97397V12C20 12.5 18.2143 13.5911 17.3214 14.1576C15.9983 14.8192 14.118 15.25 12 15.25C9.88205 15.25 8.00168 14.8192 6.67856 14.1576C5.5 13.5683 4 12.5 4 12V7.97397C4.50221 8.59059 5.21495 9.10285 6.00774 9.49925C7.58004 10.2854 9.69967 10.75 12 10.75Z" fill="#f4a434"/> <path d="M17.3214 8.15761C15.9983 8.81917 14.118 9.25 12 9.25C9.88205 9.25 8.00168 8.81917 6.67856 8.15761C6.16384 7.95596 5.00637 7.31492 4.2015 6.27935C4.06454 6.10313 4.00576 5.87853 4.03988 5.65798C4.06283 5.50969 4.0948 5.35695 4.13578 5.26226C4.82815 3.40554 8.0858 2 12 2C15.9142 2 19.1718 3.40554 19.8642 5.26226C19.9052 5.35695 19.9372 5.50969 19.9601 5.65798C19.9942 5.87853 19.9355 6.10313 19.7985 6.27935C18.9936 7.31492 17.8362 7.95596 17.3214 8.15761Z" fill="#f4a434"/> </g>
</svg>