<svg width="35" height="32" viewBox="0 0 35 32" fill="none" xmlns="http://www.w3.org/2000/svg">
  <path d="M28.8002 15.317C28.5535 9.53226 29.63 6.19046 35 0L24.2649 10.9106C26.8343 14.2552 26.6051 19.0995 23.5774 22.1767C20.5498 25.2538 15.7834 25.4867 12.4925 22.8754L10.5042 24.8962L10.5116 24.9024L7.35285 28.1361C9.73784 26.7321 13.4208 27.1349 15.6425 27.3779C16.2579 27.4452 16.7611 27.5003 17.0937 27.5013C20.1371 27.6534 23.2301 26.5483 25.5544 24.186C27.9465 21.7549 29.0284 18.4965 28.8002 15.317Z" fill="#D7D8D9"/>
  <path d="M17.9063 4.49871C18.2389 4.49971 18.7421 4.55476 19.3575 4.62207C21.5792 4.86508 25.2622 5.26792 27.6472 3.86395L24.4884 7.0976L24.4958 7.10383L22.5075 9.12462C19.2166 6.51328 14.4502 6.74618 11.4226 9.82332C8.3949 12.9005 8.16574 17.7448 10.7351 21.0894L0 32C5.36996 25.8095 6.44651 22.4677 6.1998 16.683C5.97163 13.5035 7.05355 10.2451 9.44557 7.81402C11.7699 5.45167 14.8629 4.34657 17.9063 4.49871Z" fill="#D7D8D9"/>
  <path fill-rule="evenodd" clip-rule="evenodd" d="M24.7486 16C24.7486 20.0687 21.5033 23.367 17.5 23.367C13.4967 23.367 10.2514 20.0687 10.2514 16C10.2514 11.9313 13.4967 8.63292 17.5 8.63292C21.5033 8.63292 24.7486 11.9313 24.7486 16ZM17.5 21.6C20.5752 21.6 23.0682 19.0928 23.0682 16C23.0682 12.9072 20.5752 10.4 17.5 10.4C14.4248 10.4 11.9318 12.9072 11.9318 16C11.9318 19.0928 14.4248 21.6 17.5 21.6Z" fill="#D7D8D9"/>
</svg>
