<svg xmlns="http://www.w3.org/2000/svg" viewBox="0 0 92 80" fill="none">
  <path fill-rule="evenodd" clip-rule="evenodd" d="M50.5532 47.5148C50.8008 47.5096 51.0466 47.5598 51.2724 47.6617C51.4982 47.7636 51.6987 47.9149 51.8587 48.1041C51.9902 48.2625 52.0846 48.4486 52.1346 48.6484C52.1846 48.8483 52.1886 49.0573 52.1471 49.2591C51.6012 51.5367 50.3426 53.5806 48.5544 55.093C47.1533 56.4182 45.3462 57.2325 43.4253 57.4037C41.5003 57.235 39.6888 56.4206 38.2846 55.093C36.4965 53.5806 35.2373 51.5367 34.6914 49.2591C34.6523 49.0564 34.659 48.8472 34.7109 48.6474C34.7629 48.4477 34.859 48.262 34.9918 48.1041C35.1501 47.9129 35.3504 47.7603 35.5766 47.6582C35.7745 47.5689 35.988 47.5204 36.2044 47.5148H50.5532ZM43.7261 51.3154C42.7902 51.324 41.8685 51.545 41.0301 51.9612C40.3797 52.284 39.485 53.0264 38.8489 53.6885C38.9662 53.7971 39.0857 53.904 39.2088 54.0069C40.3501 55.1313 41.8339 55.8429 43.4253 56.0287C45.0124 55.845 46.4947 55.1427 47.6417 54.0304C47.8981 53.815 48.1406 53.5854 48.3715 53.3462C47.1014 52.3007 45.2475 51.3603 43.7261 51.3154ZM36.2973 48.8548C36.113 48.8549 36.0666 48.9355 36.0549 48.9587C36.4078 50.3858 37.0838 51.7039 38.0197 52.8183C38.7496 52.0736 39.7671 51.2508 40.5383 50.8786C41.5149 50.4072 42.5843 50.1582 43.6687 50.1488C45.4862 50.1794 47.6442 51.2321 49.1307 52.457C49.9061 51.4276 50.4724 50.2475 50.7841 48.9817C50.7589 48.9449 50.7238 48.9156 50.6831 48.8973C50.6425 48.879 50.5974 48.8722 50.5532 48.8778L36.2973 48.8548Z" fill="currentColor"/>
  <path fill-rule="evenodd" clip-rule="evenodd" d="M26.6888 31.9984C27.8526 31.517 29.133 31.3915 30.368 31.638C31.6031 31.8846 32.7376 32.492 33.6273 33.3834C34.5169 34.2747 35.1224 35.4098 35.3667 36.6452C35.6109 37.8806 35.4833 39.161 34.9998 40.3239C34.5163 41.4867 33.6984 42.4803 32.6502 43.1783C31.6019 43.8764 30.3699 44.2477 29.1104 44.2455C27.4244 44.2424 25.8083 43.5704 24.6171 42.3771C23.4259 41.1838 22.7568 39.5664 22.7567 37.8803C22.7568 36.6209 23.1305 35.3896 23.8304 34.3425C24.5303 33.2956 25.5251 32.4798 26.6888 31.9984ZM27.629 33.5483C27.1649 33.4552 26.6835 33.5022 26.246 33.6828C25.8084 33.8634 25.4341 34.17 25.1709 34.5635C24.9077 34.9569 24.767 35.4196 24.767 35.893C24.767 36.5251 25.0174 37.1318 25.4633 37.5799C25.9092 38.0279 26.5145 38.2815 27.1467 38.2846C27.6201 38.2869 28.0839 38.1486 28.4787 37.8873C28.8734 37.6259 29.1816 37.2529 29.3644 36.8162C29.5471 36.3795 29.5962 35.8982 29.5053 35.4337C29.4143 34.969 29.1875 34.5417 28.8535 34.2061C28.5196 33.8705 28.0932 33.6415 27.629 33.5483Z" fill="currentColor"/>
  <path fill-rule="evenodd" clip-rule="evenodd" d="M55.3469 31.9949C56.5127 31.5145 57.7951 31.3912 59.0311 31.6405C60.267 31.8899 61.4011 32.5011 62.2894 33.3959C63.1776 34.2907 63.7804 35.429 64.0208 36.6667C64.2611 37.9045 64.1283 39.1861 63.6394 40.3484C63.1505 41.5105 62.3275 42.5015 61.2748 43.1953C60.222 43.8892 58.9864 44.2546 57.7256 44.2455C56.0446 44.2362 54.4355 43.5611 53.2512 42.3681C52.0669 41.1751 51.4039 39.5613 51.4069 37.8803C51.4069 36.6195 51.7811 35.3867 52.4825 34.3391C53.184 33.2913 54.1811 32.4753 55.3469 31.9949ZM56.2446 33.5483C55.7804 33.4551 55.2987 33.5021 54.8611 33.6828C54.4235 33.8634 54.0492 34.17 53.786 34.5635C53.5228 34.9569 53.3822 35.4197 53.3821 35.893C53.3821 36.5212 53.6294 37.1244 54.0704 37.5719C54.5113 38.0193 55.1107 38.2755 55.7388 38.2846H55.7623C56.2356 38.2869 56.6991 38.1485 57.0938 37.8873C57.4885 37.6259 57.7967 37.2529 57.9795 36.8162C58.1622 36.3794 58.2114 35.8982 58.1204 35.4337C58.0295 34.969 57.8026 34.5417 57.4687 34.2061C57.1347 33.8706 56.7087 33.6416 56.2446 33.5483Z" fill="currentColor"/>
  <path d="M42.4411 5.99832C42.2104 5.59404 42.7304 5.13222 43.0654 5.43253C49.6731 12.3638 47.4666 18.7868 44.9367 22.0215C44.6595 22.3565 44.1628 22.01 44.3014 21.6057C45.1315 19.0312 45.3952 16.3075 45.0742 13.6216C44.7531 10.9357 43.8546 8.35112 42.4411 6.04481V5.99832Z" fill="currentColor"/>
  <path d="M39.8191 6.04481C39.8191 5.57116 40.5004 5.43248 40.5928 5.95234C42.8108 15.0903 37.5544 19.619 33.6613 21.1323C33.2456 21.2937 32.9916 20.7393 33.3149 20.4506C35.3716 18.6587 37.0177 16.4441 38.1402 13.9579C39.2626 11.4718 39.8352 8.77254 39.8191 6.04481Z" fill="currentColor"/>
  <path d="M45.63 5.8019C45.2488 5.52469 45.5489 4.90114 46.0108 5.08566C54.7559 8.65531 55.3571 15.5291 54.2943 19.5609C54.2734 19.6566 54.216 19.7405 54.1349 19.7953C54.0537 19.8501 53.9545 19.8716 53.858 19.8553C53.7615 19.8389 53.6747 19.7863 53.6161 19.7079C53.5574 19.6294 53.5314 19.5312 53.5431 19.434C53.272 16.7354 52.4255 14.1263 51.0605 11.7827C49.6954 9.43919 47.8435 7.41551 45.63 5.84838V5.8019Z" fill="currentColor"/>
  <path d="M36.3993 7.46579C36.6072 7.04991 37.266 7.21162 37.162 7.67372C35.1634 16.9155 28.4745 18.8449 24.3157 18.5908C23.8767 18.6023 23.8883 17.9896 24.3042 17.8625C26.9372 17.0759 29.3752 15.7438 31.4591 13.9524C33.543 12.1611 35.2262 9.95085 36.3993 7.46579Z" fill="currentColor"/>
  <path fill-rule="evenodd" clip-rule="evenodd" d="M43.3213 0C46.787 0 49.8139 1.38604 53.6031 3.62718C54.7583 4.28567 55.9137 5.00184 57.1498 5.7874C60.0263 7.56647 63.2726 9.57677 67.547 11.8757C79.323 18.2359 91.2634 31.4764 91.2634 45.3431C91.2633 64.4275 71.8319 80 47.9416 80C34.2407 79.9999 22.0069 74.8593 14.0589 66.8767L10.1898 63.0077C3.83418 56.9654 0 49.1671 0 40.6643C2.45457e-06 29.1119 7.13936 18.3335 19.0961 11.8757C22.5618 10.0273 25.5308 8.16751 28.1763 6.53863C29.6319 5.63754 31.0068 4.79411 32.3353 4.00855C36.3901 1.60572 39.8557 4.50794e-05 43.3213 0ZM43.3213 2.88795C40.5257 2.888 37.5452 4.33187 33.7907 6.50364C32.4853 7.2661 31.1337 8.10976 29.7012 8.98774C27.0095 10.6513 23.9248 12.5342 20.4591 14.4173C18.0055 15.7446 15.7728 17.2645 13.7835 18.9406C7.0112 24.6171 2.88799 32.2626 2.88795 40.6643C2.88802 53.4333 12.4481 64.4454 26.2435 69.5108C31.4341 71.4225 37.2221 72.4912 43.3213 72.4912C49.4203 72.4912 55.2081 71.4224 60.3986 69.5108C74.1942 64.4455 83.7546 53.4335 83.7546 40.6643C83.7546 29.7704 76.8232 20.1471 66.172 14.4403C62.6859 12.5525 59.802 10.8193 57.3342 9.30263C56.742 8.93507 56.1767 8.58311 55.6363 8.24851C54.3771 7.47452 53.2218 6.75815 52.1706 6.12278C48.6702 4.04335 46.117 2.88795 43.3213 2.88795Z" fill="currentColor"/>
</svg>
