<svg xmlns="http://www.w3.org/2000/svg" viewBox="0 0 80 80" fill="none">
  <path fill-rule="evenodd" clip-rule="evenodd" d="M40 0C62.0766 0 80 17.9235 80 40.0002C80 62.0768 62.0766 80 40 80C17.9234 80 0 62.0768 0 40.0002C0 17.9235 17.9234 0 40 0ZM51.5803 47.6781C49.0524 47.6714 46.543 47.3657 44.5255 47.1241C42.9915 46.9403 41.5292 46.6062 40.325 46.2544C40.1283 46.1939 39.9154 46.2688 39.7998 46.4388C39.6844 46.609 39.6777 46.8487 39.8223 46.995C40.4106 47.5896 42.2453 48.8002 43.6516 49.3298C42.5183 50.3578 41.8158 52.6205 41.5516 53.7874C41.1972 55.3529 41.2404 57.588 41.3818 58.4024C41.9505 61.6787 43.2997 64.5757 46.4204 67.0198C48.6048 68.7306 51.7017 69.8252 54.8106 69.7361C59.101 69.613 64.1508 67.5326 67.9896 63.2052C72.9913 57.1818 76.0947 49.5077 76.3452 41.0829C76.9417 21.0222 61.1394 4.25118 41.0787 3.65469C21.0183 3.05819 4.24732 18.8607 3.6508 38.9213C3.34187 49.3102 7.43111 58.8172 14.2329 65.6513C14.4222 65.8387 14.715 65.8729 14.9423 65.734C15.1696 65.5952 15.2728 65.319 15.1922 65.065C9.51992 46.4943 18.9847 25.7248 30.3037 18.7642C34.5059 16.1799 38.6648 15.0784 42.5103 16.4292C48.3978 18.497 51.8818 22.2176 59.1856 25.1434C66.4894 28.0691 67.5155 33.4654 65.7773 39.0501C64.0391 44.6348 57.744 47.694 51.5803 47.6781ZM37.713 19.1898C35.3776 19.4823 33.9736 22.4551 33.8589 24.3308C33.7433 26.2064 34.8128 29.2435 37.8641 29.0413C41.4375 28.8045 42.3818 25.6923 41.8516 22.7482C41.4536 20.5371 39.6655 18.9451 37.713 19.1898Z" fill="currentColor"/>
</svg>
