<svg xmlns="http://www.w3.org/2000/svg" viewBox="0 0 58 80" fill="none">
  <path fill-rule="evenodd" clip-rule="evenodd" d="M51.8522 73.7086L28.5405 80L5.22889 73.7086L0 15.5676H57.0811L51.8522 73.7086ZM12.973 49.0811H37.4054L36.7568 58.1622L28.7568 60.3243L20.973 58.1622L20.3243 52.5405H13.1892L14.2703 63.7838L28.7568 67.8919L43.2432 63.7838L45.1892 41.9459H19.2432L18.5946 34.5946H45.8378L46.4865 27.4595H11.027L12.973 49.0811Z" fill="currentColor"/>
  <path d="M9.28801 3.5625H12.6005V0H16.1943V10.7812H12.6005V7.1875H9.31926V10.7812H5.69426V0H9.28801V3.5625Z" fill="currentColor"/>
  <path d="M27.7255 3.59375H24.538V10.7812H20.9443V3.59375H17.7724V0H27.7255V3.59375Z" fill="currentColor"/>
  <path d="M35.3818 3.79688L37.6943 0H41.4599V10.7812H37.8661V5.4375L35.3505 9.3125L32.8349 5.4375V10.7812H29.3036V0H33.0693L35.3818 3.79688Z" fill="currentColor"/>
  <path d="M46.8349 7.21875H51.9286V10.7812H43.2411V0H46.8349V7.21875Z" fill="currentColor"/>
</svg>
