<svg xmlns="http://www.w3.org/2000/svg" viewBox="0 0 80 80" fill="none">
  <path d="M37.3803 0.0215283C37.2082 0.0371663 36.6608 0.0918992 36.1681 0.130994C24.8055 1.15528 14.1623 7.28537 7.42131 16.7072C3.66764 21.946 1.26686 27.8884 0.359726 34.1827C0.0391007 36.3798 0 37.0288 0 40.0078C0 42.9869 0.0391007 43.6358 0.359726 45.833C2.53372 60.8533 13.2239 73.4731 27.7224 78.1489C30.3187 78.9855 33.0557 79.5563 36.1681 79.9003C37.3803 80.0332 42.6197 80.0332 43.8319 79.9003C49.2043 79.3061 53.7556 77.9768 58.2444 75.6859C58.9326 75.334 59.0655 75.2402 58.9717 75.162C58.9091 75.1151 55.9765 71.1821 52.4575 66.4282L46.0606 57.7882L38.045 45.9268C33.6344 39.4058 30.0059 34.0732 29.9746 34.0732C29.9433 34.0654 29.912 39.3354 29.8964 45.7704C29.8729 57.0376 29.8651 57.4911 29.7243 57.7569C29.521 58.1401 29.3646 58.2964 29.0362 58.4685C28.7859 58.5936 28.567 58.617 27.3861 58.617H26.0332L25.6735 58.3903C25.4389 58.2417 25.2669 58.0462 25.1496 57.8195L24.9853 57.4676L25.001 41.7906L25.0244 26.1057L25.2669 25.8007C25.392 25.6365 25.6579 25.4254 25.8456 25.3238C26.1662 25.1674 26.2913 25.1518 27.6442 25.1518C29.2395 25.1518 29.5054 25.2143 29.9198 25.6678C30.0371 25.7929 34.3773 32.3296 39.5699 40.2033C44.7625 48.077 51.8631 58.8281 55.3509 64.106L61.6852 73.6999L62.0059 73.4887C64.8446 71.6435 67.8475 69.0163 70.2248 66.2796C75.2845 60.4701 78.5455 53.3861 79.6403 45.833C79.9609 43.6358 80 42.9869 80 40.0078C80 37.0288 79.9609 36.3798 79.6403 34.1827C77.4663 19.1624 66.7761 6.54256 52.2776 1.86681C49.7204 1.038 46.999 0.467211 43.9492 0.123175C43.1984 0.0449853 38.0293 -0.0410236 37.3803 0.0215283ZM53.7556 24.2135C54.131 24.4011 54.436 24.7608 54.5455 25.1361C54.608 25.3394 54.6237 29.6868 54.608 39.484L54.5846 53.5425L52.1056 49.7425L49.6188 45.9424V35.723C49.6188 29.116 49.65 25.402 49.697 25.2221C49.8221 24.7843 50.0958 24.4402 50.4712 24.2369C50.7918 24.0727 50.9091 24.0571 52.1368 24.0571C53.2942 24.0571 53.4976 24.0727 53.7556 24.2135Z" fill="currentColor"/>
</svg>
