<svg xmlns="http://www.w3.org/2000/svg" viewBox="0 0 108 80" fill="none">
  <path fill-rule="evenodd" clip-rule="evenodd" d="M45.0812 0C47.3615 1.59069e-05 49.4685 1.21984 50.6087 3.19992L61.3718 21.8937L65.058 28.2935L89.3073 70.4003H89.302C89.8721 71.3903 90.1572 72.4952 90.1572 73.6002H101.105L70.0369 19.6456L65.058 28.2935L61.3718 21.8937L64.5105 16.4457C65.6506 14.4654 67.758 13.2453 70.0385 13.2453C72.3188 13.2453 74.4258 14.4655 75.5659 16.4457L106.645 70.4003C107.785 72.3804 107.785 74.82 106.645 76.8001C105.505 78.7798 103.398 80 101.119 80H6.3816C4.10147 80 1.99452 78.7796 0.854653 76.7996C-0.285161 74.8195 -0.284782 72.3802 0.855179 70.4003L39.5532 3.19992C40.6934 1.21971 42.8009 0 45.0812 0ZM6.3816 73.6002C6.3816 73.6002 33.3162 73.6002 32.5956 73.6002C32.5942 72.4929 32.8732 71.3837 33.4394 70.4003L57.6861 28.2935L45.0797 6.40036L6.3816 73.6002ZM38.9658 73.6002H83.773L61.3718 34.6933L38.9658 73.6002Z" fill="currentColor"/>
</svg>
