<svg xmlns="http://www.w3.org/2000/svg" viewBox="0 0 90 80" fill="none">
  <path d="M44.8436 32.0053C49.2588 32.0053 52.8385 35.5849 52.8385 40.0001C52.8384 44.4153 49.2588 47.9945 44.8436 47.9945C40.4285 47.9944 36.8493 44.4152 36.8492 40.0001C36.8492 35.5849 40.4284 32.0053 44.8436 32.0053Z" fill="currentColor"/>
  <path fill-rule="evenodd" clip-rule="evenodd" d="M58.4867 0.726093C61.578 -0.273929 64.666 -0.341541 67.2687 1.161C69.8714 2.66366 71.3564 5.37183 72.036 8.54891C72.7157 11.7264 72.6462 15.5904 71.9669 19.8303C71.7039 21.472 71.346 23.1857 70.8978 24.9579C72.6578 25.456 74.3219 26.0032 75.8761 26.5966C79.8876 28.1283 83.2682 30 85.6802 32.1773C88.0919 34.3544 89.6947 36.9948 89.6948 40.0001C89.6947 43.0054 88.0919 45.6459 85.6802 47.8229C83.2682 50.0002 79.8875 51.8714 75.8761 53.4031C74.3218 53.9966 72.6574 54.5437 70.8973 55.0418C71.3456 56.8142 71.7034 58.5281 71.9664 60.1699C72.6457 64.4098 72.7151 68.2734 72.0355 71.4508C71.3559 74.628 69.8709 77.3365 67.2682 78.8392C64.6654 80.3418 61.577 80.2737 58.4857 79.2737C55.3943 78.2735 52.0833 76.2815 48.7512 73.5734C47.4608 72.5246 46.1554 71.3575 44.8446 70.083C43.5339 71.3574 42.2288 72.5247 40.9385 73.5734C37.6063 76.2816 34.2951 78.2735 31.2035 79.2737C28.1122 80.2737 25.0243 80.3414 22.4215 78.8387C19.8189 77.336 18.3333 74.628 17.6537 71.4508C16.9741 68.2734 17.044 64.4098 17.7233 60.1699C17.9864 58.5278 18.344 56.8135 18.7924 55.0408C17.0341 54.543 15.3715 53.996 13.8187 53.4031C9.80728 51.8714 6.42653 50.0002 4.01459 47.8229C1.60292 45.6459 8.69788e-05 43.0054 0 40.0001C5.53574e-05 36.9948 1.6029 34.3544 4.01459 32.1773C6.42654 30 9.80721 28.1283 13.8187 26.5966C15.3714 26.0038 17.0338 25.4567 18.7919 24.9589C18.3435 23.1863 17.9859 21.4719 17.7228 19.8298C17.0436 15.5901 16.9736 11.7268 17.6532 8.54942C18.3328 5.37226 19.8179 2.66374 22.4205 1.161C25.0232 -0.341663 28.1112 -0.273402 31.2025 0.726598C34.294 1.72674 37.6053 3.71863 40.9375 6.42684C42.228 7.47566 43.5337 8.64264 44.8446 9.91721C46.1556 8.64254 47.4617 7.47574 48.7522 6.42684C52.0844 3.71868 55.3952 1.72626 58.4867 0.726093ZM22.5724 55.9994C22.1517 57.6626 21.8181 59.263 21.5739 60.787C20.9387 64.7518 20.9238 68.0937 21.4675 70.6355C22.0112 73.1774 23.0575 74.7026 24.3716 75.4614C25.6858 76.2201 27.5299 76.3634 30.0032 75.5633C32.4763 74.7632 35.3629 73.0797 38.4789 70.5472C39.6764 69.574 40.8949 68.4845 42.1247 67.2889C39.5565 64.5111 36.999 61.3443 34.5329 57.8592C30.2823 57.466 26.2616 56.8346 22.5724 55.9994ZM67.1173 56.0005C63.4279 56.8354 59.4071 57.4667 55.1563 57.8597C52.6904 61.3446 50.133 64.5113 47.5651 67.2889C48.7948 68.4845 50.0133 69.574 51.2108 70.5472C54.3268 73.0796 57.2135 74.7632 59.6865 75.5633C62.1598 76.3634 64.004 76.22 65.3181 75.4614C66.6322 74.7026 67.6785 73.1773 68.2223 70.6355C68.7659 68.0937 68.751 64.7518 68.1158 60.787C67.8717 59.2633 67.5379 57.6633 67.1173 56.0005ZM39.6217 58.2093C41.3468 60.4862 43.0981 62.5863 44.8446 64.4862C46.5911 62.5864 48.3425 60.4866 50.0676 58.2098C48.3542 58.2878 46.6122 58.3289 44.8476 58.3289C43.081 58.3289 41.337 58.2875 39.6217 58.2093ZM44.8476 25.5709C42.0513 25.5709 39.3235 25.6758 36.6888 25.8731C35.2011 28.0556 33.747 30.3649 32.3493 32.7858C30.9515 35.2068 29.6787 37.6209 28.5325 40.0006C29.6786 42.3801 30.9512 44.7938 32.3488 47.2145C33.7463 49.635 35.2003 51.944 36.6878 54.1261C39.3228 54.3235 42.0509 54.4288 44.8476 54.4288C47.642 54.4288 50.3679 54.3237 53.0009 54.1266C54.4886 51.9443 55.9433 49.6357 57.3409 47.215C58.7386 44.7942 60.0111 42.3801 61.1572 40.0006C60.011 37.6209 58.7382 35.2068 57.3404 32.7858C55.9426 30.3646 54.4878 28.0553 52.9999 25.8726C50.3672 25.6756 47.6416 25.5709 44.8476 25.5709ZM63.2258 44.5823C62.4364 46.1058 61.6015 47.6361 60.7188 49.165C59.836 50.6941 58.9282 52.1825 58.0034 53.6281C60.8376 53.2726 63.5317 52.8062 66.0502 52.2437C65.2782 49.7813 64.335 47.2147 63.2258 44.5823ZM26.4634 44.5823C25.3544 47.2142 24.4114 49.7802 23.6395 52.2422C26.1577 52.8047 28.8514 53.272 31.6853 53.6276C30.7607 52.1822 29.8541 50.6933 28.9714 49.1645C28.0887 47.6356 27.2529 46.1059 26.4634 44.5823ZM69.8383 28.7106C68.7167 32.3237 67.2528 36.1222 65.4675 40.0006C67.2525 43.8785 68.7158 47.6765 69.8373 51.2891C71.4888 50.8217 73.0425 50.3106 74.485 49.7599C78.2362 48.3276 81.1378 46.6696 83.0672 44.9279C84.9967 43.1861 85.7946 41.5175 85.7947 40.0001C85.7947 38.4827 84.9967 36.8137 83.0672 35.0718C81.1378 33.3301 78.2362 31.6722 74.485 30.2399C73.0428 29.6892 71.4894 29.178 69.8383 28.7106ZM19.8514 28.7122C18.2022 29.1791 16.6505 29.6898 15.2097 30.2399C11.4586 31.6722 8.557 33.3301 6.62758 35.0718C4.69802 36.8137 3.90011 38.4827 3.90006 40.0001C3.90014 41.5175 4.69812 43.1861 6.62758 44.9279C8.55699 46.6696 11.4586 48.3276 15.2097 49.7599C16.6508 50.3101 18.2028 50.8205 19.8525 51.2876C20.9739 47.6755 22.437 43.8779 24.2217 40.0006C22.4367 36.1228 20.973 32.3248 19.8514 28.7122ZM31.6863 26.3721C28.8519 26.7278 26.1576 27.1949 23.639 27.7576C24.411 30.2199 25.3542 32.7862 26.4634 35.4184C27.2529 33.8947 28.0891 32.3648 28.9719 30.8357C29.8547 29.3067 30.7615 27.8177 31.6863 26.3721ZM58.0029 26.3716C58.9278 27.8174 59.8354 29.3065 60.7183 30.8357C61.6011 32.3648 62.4368 33.8948 63.2263 35.4184C64.3356 32.7859 65.2786 30.2191 66.0507 27.7566C63.5319 27.194 60.8375 26.7271 58.0029 26.3716ZM30.0022 4.43645C27.529 3.63641 25.6847 3.78015 24.3706 4.53887C23.0565 5.29768 22.0107 6.82291 21.467 9.36475C20.9233 11.9065 20.9382 15.2485 21.5734 19.2133C21.8176 20.7371 22.1513 22.3373 22.5719 24.0003C26.2613 23.1651 30.2824 22.5333 34.5334 22.1401C36.9992 18.6553 39.5568 15.4889 42.1247 12.7113C40.8947 11.5155 39.6755 10.4264 38.4779 9.45304C35.3619 6.92061 32.4753 5.2365 30.0022 4.43645ZM65.3186 4.53836C64.0045 3.7798 62.1606 3.63691 59.6875 4.43695C57.2145 5.23701 54.3278 6.9206 51.2118 9.45304C50.0141 10.4265 48.7951 11.5159 47.5651 12.7118C50.1326 15.4891 52.6897 18.6552 55.1553 22.1396C59.4066 22.5325 63.428 23.1643 67.1178 23.9993C67.5383 22.3366 67.8722 20.7368 68.1163 19.2133C68.7515 15.2485 68.7664 11.9065 68.2228 9.36475C67.679 6.82272 66.6328 5.2971 65.3186 4.53836ZM44.8446 15.514C43.0984 17.4136 41.3475 19.5135 39.6227 21.7899C41.3377 21.7118 43.0813 21.6709 44.8476 21.6709C46.6121 21.6709 48.3538 21.712 50.0671 21.7899C48.3421 19.5134 46.5909 17.4137 44.8446 15.514Z" fill="currentColor"/>
</svg>
