<svg xmlns="http://www.w3.org/2000/svg" viewBox="0 0 70 80" fill="none">
  <path d="M22.6127 67.5777C26.3895 67.5777 27.2098 70.3786 27.2099 72.0493V80H0V67.5777H22.6127Z" fill="currentColor"/>
  <path d="M38.47 0C59.2079 0 69.5134 9.79481 69.5134 25.4409C69.5134 37.1437 62.2617 44.7758 52.4653 46.0479C60.735 47.7016 65.5694 52.4085 66.46 61.6944C67.1795 70.9374 67.1796 75.2704 67.1796 80H45.7936C45.7936 78.9698 45.8124 78.0272 45.831 77.0716C45.8889 74.1009 45.949 71.0031 45.4676 64.7472C44.8315 55.5883 40.8874 53.5532 33.6355 53.5532H0V36.8893H34.6535C43.8137 36.8893 48.3939 34.1027 48.3939 26.7248C48.3939 20.2374 43.8137 16.306 34.6535 16.306H0V0H38.47Z" fill="currentColor"/>
</svg>
