<svg xmlns="http://www.w3.org/2000/svg" viewBox="0 0 67 80" fill="none">
  <path fill-rule="evenodd" clip-rule="evenodd" d="M29.5731 3.53378C40.1483 -3.17654 54.8585 -0.0584717 62.2476 10.5831C65.8403 15.5311 67.2642 21.7667 66.1118 27.8669C65.6373 30.7137 64.5527 33.4252 62.9258 35.8653C65.2984 40.271 66.0441 45.3546 65.1629 50.3026C64.146 56.1996 60.6206 61.4189 55.5364 64.6046L36.8947 76.4663C26.3196 83.1765 11.6771 80.0584 4.22022 69.4169C0.695198 64.4689 -0.728649 58.233 0.355941 52.2006C0.830464 49.3538 1.91505 46.6423 3.54198 44.2022C1.16941 39.7965 0.42366 34.7128 1.30491 29.7649C2.32177 23.868 5.84723 18.649 10.9314 15.4634L29.5731 3.53378ZM54.5864 15.4634C51.0614 10.3798 44.757 8.00729 38.7237 9.56625C37.368 9.97292 36.0802 10.5154 34.9278 11.2609L16.2856 23.1226C13.2351 25.0204 11.0661 28.2061 10.456 31.7307C9.77809 35.3908 10.6591 39.1187 12.7605 42.101C16.2855 47.1846 22.59 49.557 28.6232 47.9981C29.979 47.6592 31.2671 47.117 32.4196 46.3714L39.5373 41.8303C39.8762 41.627 40.2829 41.4913 40.6896 41.3558C42.5199 40.8813 44.4182 41.559 45.5028 43.1179C46.1129 43.9991 46.384 45.1515 46.1806 46.236C45.9772 47.3204 45.367 48.2017 44.418 48.8117L25.8437 60.6734C25.5048 60.8766 25.0981 61.0123 24.6915 61.1479C22.8612 61.6223 20.9633 60.8763 19.8787 59.3174C19.3364 58.504 19.0652 57.4873 19.133 56.5384L19.2005 55.8606L18.5227 55.6573C15.879 54.844 13.4387 53.624 11.2017 51.9973L10.2522 51.3195L9.91357 52.4038C9.77799 53.0139 9.6421 53.5564 9.50652 54.1664C8.89649 57.8265 9.71021 61.5544 11.8794 64.5367C15.4045 69.6202 21.7089 71.9928 27.7422 70.4338C29.0979 70.0271 30.3857 69.4847 31.538 68.7391L50.1802 56.8775C53.2308 54.9796 55.4003 51.7939 56.0104 48.2693C56.6205 44.6091 55.8067 40.8809 53.6375 37.8986C50.1124 32.8151 43.8079 30.443 37.7747 32.0019C36.419 32.4086 35.1312 32.951 33.9789 33.6966L26.8606 38.2377C26.5217 38.441 26.1151 38.5766 25.7084 38.7122C23.8781 39.1866 21.9798 38.509 20.8951 36.9501C20.285 36.0689 20.014 34.9164 20.2174 33.832C20.4207 32.7475 21.0309 31.8663 21.9799 31.2562L40.5542 19.3946C40.8931 19.1913 41.2998 19.0557 41.7065 18.9201C43.5367 18.4457 45.4351 19.1233 46.5197 20.6822C47.062 21.4956 47.3332 22.5127 47.2654 23.4617L47.1975 24.1394L47.8753 24.3427C50.519 25.1561 52.9597 26.376 55.1968 28.0028L56.1457 28.6805L56.4849 27.5962C56.6882 26.9862 56.8238 26.4437 56.9594 25.8336C57.5694 22.1735 56.7557 18.4457 54.5864 15.4634Z" fill="currentColor"/>
</svg>
