<svg width="640" height="640" viewBox="0 0 640 640" fill="none" xmlns="http://www.w3.org/2000/svg">
<g clip-path="url(#clip0_1593_1925)">
<path fill-rule="evenodd" clip-rule="evenodd" d="M514.832 308.261C510.567 208.836 529.176 151.399 622 45L470.805 197.793L457.45 211.29C445.419 223.447 444.68 242.492 452.167 257.87C478.81 312.596 469.606 380.633 424.553 426.162C379.691 471.498 312.743 480.913 258.708 454.407C243.11 446.756 223.705 447.505 211.485 459.854L198.573 472.903L198.7 473.01L144.099 528.589C185.326 504.458 248.988 511.382 287.392 515.558C298.029 516.715 306.728 517.661 312.476 517.678C365.084 520.293 418.548 501.3 458.727 460.697C500.074 418.912 518.776 362.908 514.832 308.261ZM326.524 122.322C332.272 122.339 340.971 123.285 351.608 124.442C390.012 128.619 453.674 135.542 494.901 111.412L440.3 166.99L440.427 167.097L427.515 180.146C415.295 192.495 395.89 193.245 380.292 185.593C326.257 159.087 259.309 168.502 214.447 213.838C169.394 259.367 160.19 327.404 186.833 382.131C194.32 397.509 193.581 416.553 181.55 428.71L168.195 442.207L17 595C109.824 488.601 128.433 431.164 124.168 331.74C120.224 277.092 138.926 221.088 180.273 179.304C220.452 138.701 273.916 119.707 326.524 122.322ZM435.847 320C435.847 384.935 383.757 437.576 319.5 437.576C255.243 437.576 203.153 384.935 203.153 320C203.153 255.064 255.243 202.423 319.5 202.423C383.757 202.423 435.847 255.064 435.847 320ZM444.797 320C444.797 389.93 388.7 446.621 319.5 446.621C250.3 446.621 194.203 389.93 194.203 320C194.203 250.069 250.3 193.378 319.5 193.378C388.7 193.378 444.797 250.069 444.797 320Z" fill="#F4F6FC"/>
<path d="M439.25 320C439.25 386.136 385.636 439.75 319.5 439.75C253.364 439.75 199.75 386.136 199.75 320C199.75 253.864 253.364 200.25 319.5 200.25C385.636 200.25 439.25 253.864 439.25 320Z" stroke="#F4F6FC" stroke-width="8"/>
</g>
<defs>
<clipPath id="clip0_1593_1925">
<rect width="640" height="640" fill="white"/>
</clipPath>
</defs>
</svg>
